<?xml version="1.0" encoding="UTF-8"?>
<svg width="18px" height="16px" viewBox="0 0 18 16" version="1.1" xmlns="http://www.w3.org/2000/svg" xmlns:xlink="http://www.w3.org/1999/xlink">
    <title>Group 10</title>
    <g id="Dark-Mode" stroke="none" stroke-width="1" fill="none" fill-rule="evenodd" stroke-linecap="round" stroke-linejoin="round">
        <g id="Community-Owned-(Dark)-Copy" transform="translate(-1004.000000, -554.000000)" stroke="#DCDCDC" stroke-width="1.04166667">
            <g id="Group-8" transform="translate(927.000000, 236.000000)">
                <g id="Group-10" transform="translate(78.499907, 319.333333)">
                    <path d="M4.16675926,6.66666667 C4.16675926,7.12690396 4.5398553,7.5 5.00009259,7.5 C5.46032988,7.5 5.83342593,7.12690396 5.83342593,6.66666667 C5.83342593,6.20642938 5.46032988,5.83333333 5.00009259,5.83333333 C4.5398553,5.83333333 4.16675926,6.20642938 4.16675926,6.66666667" id="Path"></path>
                    <path d="M9.16675926,6.66666667 C9.16675926,7.12690396 9.5398553,7.5 10.0000926,7.5 C10.4603299,7.5 10.8334259,7.12690396 10.8334259,6.66666667 C10.8334259,6.20642938 10.4603299,5.83333333 10.0000926,5.83333333 C9.5398553,5.83333333 9.16675926,6.20642938 9.16675926,6.66666667" id="Path"></path>
                    <path d="M4.58342593,10.8333333 C4.58342593,11.6666667 3.45342593,13.3333333 3.05675926,13.3333333 C1.86592593,13.3333333 0.808425926,11.9441667 0.279259259,10.8333333 C-0.249907407,9.44416667 -0.117407407,5.9725 1.46925926,1.25 C2.62592593,0.404166667 3.78759259,0.133333333 5.00009259,0 L5.81259259,1.6025 C6.9301614,1.40958056 8.07252378,1.40958056 9.19009259,1.6025 L10.0000926,0 C11.2500926,0.133333333 12.5359259,0.404166667 13.7500926,1.25 C15.4167593,5.9725 15.5559259,9.44416667 15.0000926,10.8333333 C14.4442593,11.9441667 13.3334259,13.3333333 12.0834259,13.3333333 C11.6667593,13.3333333 10.4167593,11.6666667 10.4167593,10.8333333" id="Path"></path>
                    <path d="M3.33342593,10.4166667 C6.25009259,11.25 8.75009259,11.25 11.6667593,10.4166667" id="Path"></path>
                </g>
            </g>
        </g>
    </g>
</svg>