<?xml version="1.0" encoding="UTF-8"?>
<svg width="17px" height="4px" viewBox="0 0 17 4" version="1.1" xmlns="http://www.w3.org/2000/svg" xmlns:xlink="http://www.w3.org/1999/xlink">
    <title>noun-three-dots-4434834</title>
    <g id="Dark-Mode" stroke="none" stroke-width="1" fill="none" fill-rule="evenodd">
        <g id="Landing---Not-Signed-In-(Dark)" transform="translate(-1211.000000, -28.000000)" fill="#FFFFFF" fill-rule="nonzero">
            <g id="Group-4" transform="translate(260.000000, 9.000000)">
                <g id="Button-/-Menu-Copy" transform="translate(938.000000, 0.000000)">
                    <g id="noun-three-dots-4434834" transform="translate(13.000000, 19.000000)">
                        <path d="M0,1.7 C0,2.63878857 0.761211429,3.4 1.7,3.4 C2.63878857,3.4 3.4,2.63878857 3.4,1.7 C3.4,0.761211429 2.63878857,0 1.7,0 C0.761211429,0 0,0.761211429 0,1.7 Z" id="Path"></path>
                        <path d="M8.5,3.4 C7.56121143,3.4 6.8,2.63878857 6.8,1.7 C6.8,0.761211429 7.56121143,0 8.5,0 C9.43878857,0 10.2,0.761211429 10.2,1.7 C10.2,2.63878857 9.43878857,3.4 8.5,3.4 Z" id="Path"></path>
                        <path d="M15.3,3.4 C14.3612114,3.4 13.6,2.63878857 13.6,1.7 C13.6,0.761211429 14.3612114,0 15.3,0 C16.2387886,0 17,0.761211429 17,1.7 C17,2.63878857 16.2387886,3.4 15.3,3.4 Z" id="Path"></path>
                    </g>
                </g>
            </g>
        </g>
    </g>
</svg>