<?xml version="1.0" encoding="UTF-8"?>
<svg width="16px" height="16px" viewBox="0 0 16 16" version="1.1" xmlns="http://www.w3.org/2000/svg" xmlns:xlink="http://www.w3.org/1999/xlink">
    <title>Group 6</title>
    <g id="Dark-Mode" stroke="none" stroke-width="1" fill="none" fill-rule="evenodd" stroke-linecap="round" stroke-linejoin="round">
        <g id="Community-Owned-(Dark)-Copy" transform="translate(-941.000000, -554.000000)" stroke="#DCDCDC" stroke-width="1.04166667">
            <g id="Group-8" transform="translate(927.000000, 236.000000)">
                <g id="Group-6" transform="translate(15.303722, 319.303722)">
                    <path d="M5.02961159,8.36294489 C5.57820437,8.92285005 6.3290777,9.2383701 7.11294492,9.2383701 C7.89681215,9.2383701 8.64768547,8.92285005 9.19627825,8.36294489 L12.5296116,5.02961156 C13.6802048,3.87901832 13.6802048,2.01353814 12.5296116,0.862944922 C11.3790183,-0.287648295 9.51353816,-0.287648309 8.36294492,0.862944891 L7.94627825,1.27961156" id="Path"></path>
                    <path d="M8.36294492,5.02961156 C7.81435214,4.4697064 7.06347881,4.15418634 6.27961159,4.15418634 C5.49574436,4.15418634 4.74487104,4.4697064 4.19627825,5.02961156 L0.862944922,8.36294489 C-0.287648307,9.51353812 -0.287648307,11.3790183 0.862944922,12.5296116 C2.01353815,13.6802048 3.87901836,13.6802048 5.02961159,12.5296116 L5.44627825,12.1129449" id="Path"></path>
                </g>
            </g>
        </g>
    </g>
</svg>