<?xml version="1.0" encoding="UTF-8"?>
<svg width="15px" height="14px" viewBox="0 0 15 14" version="1.1" xmlns="http://www.w3.org/2000/svg" xmlns:xlink="http://www.w3.org/1999/xlink">
    <title>noun-search-1238281</title>
    <g id="Dark-Mode" stroke="none" stroke-width="1" fill="none" fill-rule="evenodd">
        <g id="Landing---Not-Signed-In-(Dark)" transform="translate(-278.000000, -95.000000)" fill="#F1F1F2" fill-rule="nonzero">
            <g id="noun-search-1238281" transform="translate(278.678550, 95.000000)">
                <path d="M5.52508341,0.000230266634 C2.48227432,0.000230266634 0,2.48266906 0,5.52531368 C0,8.56795829 2.48243879,11.0503971 5.52508341,11.0503971 C6.78204317,11.0503971 7.94456072,10.6282854 8.87480503,9.91653128 L12.7367054,13.7843528 C13.0244104,14.0720578 13.4965195,14.0720578 13.7842212,13.7843528 C14.0719263,13.4966478 14.0719263,13.0303283 13.7842212,12.7426266 L9.9163997,8.87480503 C10.6278907,7.94462651 11.0502655,6.7818458 11.0502655,5.52508341 C11.0502655,2.48227432 8.56769513,0 5.52518209,0 L5.52508341,0.000230266634 Z M5.52508341,1.47357488 C7.77159759,1.47357488 9.57711826,3.27896397 9.57711826,5.52560973 C9.57711826,7.77225549 7.77172917,9.57764459 5.52508341,9.57764459 C3.27843765,9.57764459 1.47304855,7.77225549 1.47304855,5.52560973 C1.47304855,3.27896397 3.27843765,1.47357488 5.52508341,1.47357488 Z" id="Shape"></path>
            </g>
        </g>
    </g>
</svg>