<?xml version="1.0" encoding="UTF-8"?>
<svg width="20px" height="20px" viewBox="0 0 20 20" version="1.1" xmlns="http://www.w3.org/2000/svg" xmlns:xlink="http://www.w3.org/1999/xlink">
    <title>Random Icon</title>
    <g id="Dark-Mode" stroke="none" stroke-width="1" fill="none" fill-rule="evenodd">
        <g id="Community-Defaul-(Dark)" transform="translate(-414.000000, -332.000000)">
            <g id="Group-7" transform="translate(260.000000, 312.000000)">
                <g id="Random-Icon" transform="translate(151.980000, 18.000000)">
                    <polygon id="Path" points="0 0 24 0 24 24 0 24"></polygon>
                    <path d="M3.5,9.5 C3.5,10.0522847 3.94771525,10.5 4.5,10.5 C5.05228475,10.5 5.5,10.0522847 5.5,9.5 C5.5,8.94771525 5.05228475,8.5 4.5,8.5 C3.94771525,8.5 3.5,8.94771525 3.5,9.5" id="Path" stroke="#FFFFFF" stroke-width="1.5" fill="#FFFFFF" stroke-linecap="round" stroke-linejoin="round"></path>
                    <path d="M8.5,4.5 C8.5,5.05228475 8.94771525,5.5 9.5,5.5 C10.0522847,5.5 10.5,5.05228475 10.5,4.5 C10.5,3.94771525 10.0522847,3.5 9.5,3.5 C8.94771525,3.5 8.5,3.94771525 8.5,4.5" id="Path" stroke="#FFFFFF" stroke-width="1.5" fill="#FFFFFF" stroke-linecap="round" stroke-linejoin="round"></path>
                    <path d="M8.5,14.5 C8.5,15.0522847 8.94771525,15.5 9.5,15.5 C10.0522847,15.5 10.5,15.0522847 10.5,14.5 C10.5,13.9477153 10.0522847,13.5 9.5,13.5 C8.94771525,13.5 8.5,13.9477153 8.5,14.5" id="Path" stroke="#FFFFFF" stroke-width="1.5" fill="#FFFFFF" stroke-linecap="round" stroke-linejoin="round"></path>
                    <path d="M3.5,19.5 C3.5,20.0522847 3.94771525,20.5 4.5,20.5 C5.05228475,20.5 5.5,20.0522847 5.5,19.5 C5.5,18.9477153 5.05228475,18.5 4.5,18.5 C3.94771525,18.5 3.5,18.9477153 3.5,19.5" id="Path" stroke="#FFFFFF" stroke-width="1.5" fill="#FFFFFF" stroke-linecap="round" stroke-linejoin="round"></path>
                    <path d="M13.5,9.5 C13.5,10.0522847 13.9477153,10.5 14.5,10.5 C15.0522847,10.5 15.5,10.0522847 15.5,9.5 C15.5,8.94771525 15.0522847,8.5 14.5,8.5 C13.9477153,8.5 13.5,8.94771525 13.5,9.5" id="Path" stroke="#FFFFFF" stroke-width="1.5" fill="#FFFFFF" stroke-linecap="round" stroke-linejoin="round"></path>
                    <path d="M18.5,4.5 C18.5,5.05228475 18.9477153,5.5 19.5,5.5 C20.0522847,5.5 20.5,5.05228475 20.5,4.5 C20.5,3.94771525 20.0522847,3.5 19.5,3.5 C18.9477153,3.5 18.5,3.94771525 18.5,4.5" id="Path" stroke="#FFFFFF" stroke-width="1.5" fill="#FFFFFF" stroke-linecap="round" stroke-linejoin="round"></path>
                    <path d="M13.5,19.5 C13.5,20.0522847 13.9477153,20.5 14.5,20.5 C15.0522847,20.5 15.5,20.0522847 15.5,19.5 C15.5,18.9477153 15.0522847,18.5 14.5,18.5 C13.9477153,18.5 13.5,18.9477153 13.5,19.5" id="Path" stroke="#FFFFFF" stroke-width="1.5" fill="#FFFFFF" stroke-linecap="round" stroke-linejoin="round"></path>
                    <path d="M18.5,14.5 C18.5,15.0522847 18.9477153,15.5 19.5,15.5 C20.0522847,15.5 20.5,15.0522847 20.5,14.5 C20.5,13.9477153 20.0522847,13.5 19.5,13.5 C18.9477153,13.5 18.5,13.9477153 18.5,14.5" id="Path" stroke="#FFFFFF" stroke-width="1.5" fill="#FFFFFF" stroke-linecap="round" stroke-linejoin="round"></path>
                </g>
            </g>
        </g>
    </g>
</svg>