<?xml version="1.0" encoding="UTF-8"?>
<svg width="18px" height="16px" viewBox="0 0 18 16" version="1.1" xmlns="http://www.w3.org/2000/svg" xmlns:xlink="http://www.w3.org/1999/xlink">
    <title>Path</title>
    <g id="Dark-Mode" stroke="none" stroke-width="1" fill="none" fill-rule="evenodd" stroke-linecap="round" stroke-linejoin="round">
        <g id="Community-Owned-(Dark)-Copy" transform="translate(-972.000000, -554.000000)" stroke="#DCDCDC" stroke-width="1.04166667">
            <g id="Group-8" transform="translate(927.000000, 236.000000)">
                <path d="M62.3333333,319.341667 C61.5,319.75 60.6833333,319.915833 59.8333333,320.166667 C58.8991667,319.1125 57.5141667,319.054167 56.1833333,319.5525 C54.8525,320.050833 53.9808333,321.269167 54,322.666667 L54,323.5 C51.2958333,323.569167 48.8875,322.3375 47.3333333,320.166667 C47.3333333,320.166667 43.8483333,326.360833 50.6666667,329.333333 C49.1066667,330.3725 47.5508333,331.073333 45.6666667,331 C48.4233333,332.5025 51.4275,333.019167 54.0283333,332.264167 C57.0116667,331.3975 59.4633333,329.161667 60.4041667,325.8125 C60.6848252,324.793892 60.8241842,323.74155 60.8183333,322.685 C60.8183333,322.4775 62.0766667,320.375 62.3333333,319.340833 L62.3333333,319.341667 Z" id="Path"></path>
            </g>
        </g>
    </g>
</svg>