<svg width="14px" height="17px" viewBox="0 0 14 17" version="1.1" xmlns="http://www.w3.org/2000/svg" xmlns:xlink="http://www.w3.org/1999/xlink">
    <title>Path</title>
    <g id="Dark-Mode" stroke="none" stroke-width="1" fill="none" fill-rule="evenodd" stroke-linecap="round" stroke-linejoin="round">
        <g id="Timeline-(Dark)-Copy" transform="translate(-275.000000, -1334.000000)" stroke="#4E8EF7" stroke-width="1.04166667">
            <g id="Group-Copy-2" transform="translate(272.000000, 1332.000000)">
                <path d="M7.5,16.6666667 L7.5,10 L4.51166667,10 C4.17467009,9.99992804 3.87088829,9.79689375 3.74193502,9.48554547 C3.61298174,9.17419718 3.6842434,8.81582855 3.9225,8.5775 L9.41083333,3.08916667 C9.73624988,2.76384838 10.2637501,2.76384838 10.5891667,3.08916667 L16.0775,8.5775 C16.3157566,8.81582855 16.3870183,9.17419718 16.258065,9.48554547 C16.1291117,9.79689375 15.8253299,9.99992804 15.4883333,10 L12.5,10 L12.5,16.6666667 C12.5,17.126904 12.126904,17.5 11.6666667,17.5 L8.33333333,17.5 C7.87309604,17.5 7.5,17.126904 7.5,16.6666667 Z" id="Path"></path>
            </g>
        </g>
    </g>
</svg>